<svg xmlns="http://www.w3.org/2000/svg" width="23.249" height="20.746" viewBox="0 0 23.249 20.746">
    <path id="Path_888" data-name="Path 888" d="M107.364,549.412l.23.142.225-.142c1.128-.658,9.854-8.566,10.247-10.717a14.554,14.554,0,0,0,0-3.478c-.127-.55-1.6-4.23-5.453-4.23a5.248,5.248,0,0,0-5.021,2.728,6.738,6.738,0,0,0-5.023-2.728c-3.854,0-5.325,3.68-5.452,4.23a14.45,14.45,0,0,0,0,3.478c.393,2.151,9.119,10.059,10.247,10.717" transform="translate(-95.966 -529.987)" fill="#ffffff" stroke="#ffffff" stroke-miterlimit="10" stroke-width="2" />
</svg>